# xmcd
#
# Track frame offsets: 
#        150
#        3035
#        14307
#        18245
#        33282
#        45470
#        60265
#        63532
#        77997
#
# Disc length: 1248 seconds
#
# Revision: 8
# Processed by: cddbd v1.5.2PL0 Copyright (c) Steve Scherf et al.
# Submitted via: ExactAudioCopyFreeDBPlugin 1.0
#
DISCID=5b04de09
DTITLE=Modest Mouse - The Fruit That Ate Itself
DYEAR=1996
DGENRE=Indie Rock
TTITLE0=(Sunspots)
TTITLE1=The Waydown
TTITLE2=(Fruit)
TTITLE3=Dirty Fingernails
TTITLE4=Sunspots In The House Of The Late Scapegoat
TTITLE5=The Fruit That Ate Itself
TTITLE6=(Way Down)
TTITLE7=Summer
TTITLE8=Karma's Payment
EXTD=ID3G:  17
EXTT0=
EXTT1=
EXTT2=
EXTT3=
EXTT4=
EXTT5=
EXTT6=
EXTT7=
EXTT8=
PLAYORDER=
